Coordinates
version=1
nRows=19
nColumns=63
inDegrees=yes

Units are S.I. units (second, meters, Newtons, ...)
If the header above contains a line with 'inDegrees', this indicates whether rotational values are in degrees (yes) or radians (no).

endheader
time	pelvis_tilt	pelvis_list	pelvis_rotation	pelvis_tx	pelvis_ty	pelvis_tz	hip_flexion_r	hip_adduction_r	hip_rotation_r	knee_angle_r	knee_angle_r_beta	ankle_angle_r	subtalar_angle_r	mtp_angle_r	hip_flexion_l	hip_adduction_l	hip_rotation_l	knee_angle_l	knee_angle_l_beta	ankle_angle_l	subtalar_angle_l	mtp_angle_l	L5_S1_Flex_Ext	L5_S1_Lat_Bending	L5_S1_axial_rotation	L4_L5_Flex_Ext	L4_L5_Lat_Bending	L4_L5_axial_rotation	L3_L4_Flex_Ext	L3_L4_Lat_Bending	L3_L4_axial_rotation	L2_L3_Flex_Ext	L2_L3_Lat_Bending	L2_L3_axial_rotation	L1_L2_Flex_Ext	L1_L2_Lat_Bending	L1_L2_axial_rotation	L1_T12_Flex_Ext	L1_T12_Lat_Bending	L1_T12_axial_rotation	Abs_r3	Abs_r2	Abs_r1	Abs_t1	Abs_t2	neck_flexion	neck_bending	neck_rotation	arm_flex_r	arm_add_r	arm_rot_r	elbow_flex_r	pro_sup_r	wrist_flex_r	wrist_dev_r	arm_flex_l	arm_add_l	arm_rot_l	elbow_flex_l	pro_sup_l	wrist_flex_l	wrist_dev_l
0.950000	10.015784	-13.103563	109.026353	0.204392	1.001076	0.402165	26.451608	2.915388	-8.655850	32.142477	0.560992	42.717108	-13.376144	0.000000	29.702007	-4.336892	7.508513	33.483521	0.584398	46.089322	5.767781	0.000000	0.262684	1.345442	0.316535	0.487830	1.789438	0.336319	0.431563	3.271308	0.336319	0.300221	3.271308	0.276968	0.243928	2.743625	0.257185	0.150097	2.084090	0.237402	1.876323	15.219909	1.760475	0.000000	0.000000	28.357836	-4.823095	13.164069	11.443125	-18.943827	119.267965	1.188284	6.156532	-13.805856	-6.002473	2.182021	-13.515280	112.548539	2.838747	3.560073	-12.924293	-21.809116
0.966667	10.293385	-13.377205	109.537646	0.202713	0.996506	0.403963	27.971207	2.647348	-8.751945	34.193910	0.596796	43.689968	-13.671363	0.000000	31.507079	-3.954353	8.378655	36.224064	0.632229	46.834421	4.962745	0.000000	0.258154	1.407323	0.388875	0.479417	1.871740	0.413180	0.424121	3.421766	0.413180	0.295044	3.421766	0.340266	0.239721	2.869814	0.315961	0.147509	2.179944	0.291657	1.843966	15.919923	2.162808	0.000000	0.000000	28.357771	-6.169393	11.513731	10.308405	-19.697322	117.581812	1.290495	7.185514	-14.687877	-5.418390	1.047114	-13.333480	113.143278	2.604155	5.988864	-14.055897	-22.047824
0.983333	10.523063	-13.585372	110.016468	0.201113	0.991866	0.405673	29.400706	2.333938	-8.938248	36.257712	0.632816	44.697243	-13.842515	0.000000	33.149926	-3.526682	9.288172	38.805818	0.677289	47.517487	4.078391	0.000000	0.248896	1.461007	0.439745	0.462225	1.943139	0.467229	0.408912	3.552292	0.467229	0.284463	3.552292	0.384777	0.231125	2.979285	0.357293	0.142219	2.263100	0.329809	1.777841	16.527202	2.445730	0.000000	0.000000	28.361980	-7.516444	9.707708	9.264703	-20.303181	115.796927	1.379784	7.539163	-15.433573	-5.144406	-0.096173	-13.100355	114.722484	2.347336	10.005417	-15.128955	-21.029704
1.000000	10.696542	-13.737667	110.430234	0.199679	0.987168	0.407343	30.747743	1.984950	-9.139779	38.324739	0.668893	45.703536	-13.957331	0.000000	34.630151	-3.084938	10.035169	41.210633	0.719261	48.210293	3.365027	0.000000	0.235479	1.504097	0.485639	0.437308	2.000449	0.515992	0.386868	3.657061	0.515992	0.269129	3.657061	0.424934	0.218666	3.067154	0.394582	0.134553	2.329846	0.364229	1.682001	17.014645	2.700979	0.000000	0.000000	28.369018	-8.882622	7.709602	8.310742	-20.760587	114.338139	1.441823	7.511008	-16.187950	-4.800414	-1.197604	-12.828573	117.338683	2.084967	15.287173	-16.035514	-18.764584
1.016667	10.815017	-13.839601	110.797688	0.198394	0.982446	0.409080	32.014461	1.601921	-9.386453	40.376706	0.704706	46.693726	-14.003484	0.000000	35.955309	-2.631551	10.708789	43.420416	0.757829	48.900283	2.733264	0.000000	0.218453	1.536903	0.532922	0.405689	2.044081	0.566230	0.358896	3.736827	0.566230	0.249670	3.736827	0.466307	0.202855	3.134053	0.432999	0.124824	2.380663	0.399692	1.560386	17.385757	2.963955	0.000000	0.000000	28.376916	-10.258542	5.588269	7.461269	-21.084067	113.241343	1.473724	7.931327	-16.925090	-4.099313	-2.208236	-12.514371	120.962739	1.835465	21.477328	-16.682824	-15.354006
1.033333	10.877614	-13.881385	111.121849	0.197248	0.977805	0.410963	33.179902	1.178375	-9.693471	42.389583	0.739838	47.646981	-13.955443	0.000000	37.114436	-2.174477	11.305492	45.423425	0.792788	49.581723	2.192430	0.000000	0.196019	1.560208	0.591740	0.364026	2.075076	0.628724	0.322039	3.793489	0.628724	0.224030	3.793489	0.517773	0.182023	3.181576	0.480789	0.112005	2.416762	0.443805	1.400141	17.649381	3.291082	0.000000	0.000000	28.385171	-11.671879	3.358368	6.716569	-21.300086	112.654046	1.479715	8.840924	-17.707257	-3.034520	-3.064948	-12.155418	125.514806	1.623059	28.445390	-17.055391	-10.971933
1.050000	10.888766	-13.874006	111.412383	0.196256	0.973368	0.413041	34.237181	0.728973	-10.040941	44.312514	0.773399	48.518618	-13.844844	0.000000	38.120925	-1.731885	11.802129	47.210908	0.823986	50.240449	1.777393	0.000000	0.169210	1.574442	0.663246	0.314239	2.094008	0.704699	0.277995	3.828099	0.704699	0.193390	3.828099	0.580341	0.157128	3.210603	0.538888	0.096686	2.438811	0.497435	1.208648	17.810405	3.688778	0.000000	0.000000	28.392105	-13.067419	1.143221	6.098177	-21.419553	112.392067	1.465768	10.605156	-18.545172	-1.598360	-3.746305	-11.744824	130.792049	1.454629	36.150123	-17.136962	-5.857281
1.066667	10.872649	-13.842833	111.701557	0.195442	0.969281	0.415283	35.180168	0.301070	-10.326536	46.051463	0.803750	49.227284	-13.855127	0.000000	38.999669	-1.338428	12.154510	48.755236	0.850939	50.847301	1.580389	0.000000	0.143110	1.580993	0.741178	0.265770	2.102721	0.787502	0.235116	3.844026	0.787502	0.163560	3.844026	0.648531	0.132892	3.223961	0.602207	0.081773	2.448958	0.555884	1.022221	17.884508	4.122212	0.000000	0.000000	28.396049	-14.323599	-0.915383	5.604573	-21.454428	112.327799	1.446398	12.940008	-19.456731	-0.013684	-4.245122	-11.280933	136.875470	1.373396	44.427123	-17.010638	-0.296526
1.083333	10.823868	-13.797602	111.966927	0.194820	0.965747	0.417639	35.993551	-0.115372	-10.598563	47.563510	0.830140	49.785618	-13.880163	0.000000	39.731783	-0.999875	12.361724	50.014035	0.872910	51.350864	1.541465	0.000000	0.117206	1.579559	0.822235	0.217663	2.100814	0.873624	0.192558	3.840541	0.873624	0.133955	3.840541	0.719455	0.108838	3.221038	0.668066	0.066972	2.446738	0.616676	0.837191	17.868293	4.573023	0.000000	0.000000	28.397167	-15.358361	-2.698172	5.274448	-21.409654	112.625239	1.421507	15.415815	-20.488380	1.598296	-4.553170	-10.774918	143.712700	1.327274	53.003514	-16.894764	5.361287
1.100000	10.750190	-13.758257	112.206176	0.194418	0.962941	0.420059	36.674243	-0.501782	-10.827209	48.791600	0.851574	50.181398	-13.955821	0.000000	40.315254	-0.734559	12.409609	50.941220	0.889092	51.707718	1.664804	0.000000	0.093519	1.569803	0.900183	0.173675	2.087838	0.956445	0.153643	3.816819	0.956445	0.106883	3.816819	0.787661	0.086842	3.201142	0.731399	0.053437	2.431625	0.675138	0.667999	17.757926	5.006551	0.000000	0.000000	28.394916	-16.101538	-4.177487	5.131232	-21.281028	113.112173	1.393075	17.561285	-21.545896	2.962749	-4.725012	-10.317008	150.160188	1.371885	60.672036	-16.908417	10.380360
1.116667	10.646833	-13.742103	112.406534	0.194284	0.961002	0.422528	37.225173	-0.850067	-10.980085	49.701638	0.867457	50.418533	-14.095320	0.000000	40.748057	-0.553695	12.268566	51.505571	0.898942	51.895983	1.961173	0.000000	0.072248	1.549915	0.974345	0.134172	2.061387	1.035241	0.118697	3.768463	1.035241	0.082573	3.768463	0.852551	0.067090	3.160586	0.791655	0.041283	2.400818	0.730758	0.516063	17.532947	5.419012	0.000000	0.000000	28.389761	-16.508798	-5.378496	5.205175	-21.060440	113.579757	1.356621	19.067140	-22.502577	3.926175	-4.825915	-9.970449	155.400923	1.543190	66.597318	-16.924139	14.392748
1.133333	10.487015	-13.737925	112.546389	0.194458	0.960054	0.425025	37.617598	-1.171506	-11.055821	50.273439	0.877437	50.519939	-14.265069	0.000000	40.992412	-0.448511	11.927783	51.683832	0.902053	51.913550	2.430809	0.000000	0.048061	1.516718	1.049625	0.089255	2.017235	1.115226	0.078960	3.687748	1.115226	0.054929	3.687748	0.918422	0.044630	3.092891	0.852820	0.027462	2.349396	0.787218	0.343297	17.157417	5.837697	0.000000	0.000000	28.382932	-16.629861	-6.415268	5.521389	-20.745834	113.795574	1.314016	19.894190	-23.286249	4.433159	-4.870478	-9.780246	159.250418	1.841726	70.588602	-16.936273	17.230352
1.150000	10.288442	-13.773758	112.607681	0.194978	0.960109	0.427532	37.882829	-1.443240	-11.041667	50.497476	0.881347	50.486423	-14.446840	0.000000	41.078451	-0.444456	11.352539	51.474690	0.898403	51.779265	3.117498	0.000000	0.024020	1.471358	1.125162	0.044607	1.956907	1.195484	0.039462	3.577461	1.195484	0.027452	3.577461	0.984517	0.022305	3.000394	0.914194	0.013725	2.279134	0.843871	0.171571	16.644300	6.257812	0.000000	0.000000	28.376046	-16.378789	-7.178421	6.125401	-20.352894	114.061309	1.261242	20.067364	-23.929320	4.620100	-4.914648	-9.763858	161.419721	2.239507	72.312219	-16.741073	18.651550
1.166667	10.035727	-13.858062	112.576573	0.195792	0.961187	0.429974	38.013422	-1.676575	-10.928438	50.362560	0.878992	50.320540	-14.622650	0.000000	40.986710	-0.511126	10.559114	50.852991	0.887552	51.501982	3.996687	0.000000	0.002576	1.412216	1.210184	0.004784	1.878247	1.285820	0.004233	3.433661	1.285820	0.002944	3.433661	1.058911	0.002392	2.879790	0.983274	0.001472	2.187522	0.907638	0.018402	15.975266	6.730678	0.000000	0.000000	28.369936	-15.957373	-7.907076	7.006166	-19.903835	114.704704	1.181753	19.901995	-24.541482	4.649728	-4.934152	-9.928729	162.042882	2.683740	71.989100	-16.479062	18.660883
1.183333	9.725532	-13.992398	112.400355	0.196910	0.963292	0.432243	38.002791	-1.852477	-10.682852	49.854914	0.870132	50.013418	-14.760967	0.000000	40.692380	-0.646448	9.538994	49.790344	0.869005	51.074811	5.036821	0.000000	-0.014512	1.340086	1.312283	-0.026950	1.782315	1.394301	-0.023841	3.258286	1.394301	-0.016585	3.258286	1.148248	-0.013476	2.732704	1.066230	-0.008292	2.075794	0.984213	-0.103656	15.159325	7.298527	0.000000	0.000000	28.366008	-15.399077	-8.574863	8.190065	-19.420855	116.009983	1.075295	19.742248	-25.101502	4.672516	-4.910967	-10.258167	161.318799	3.157094	69.793197	-16.421352	17.490517
1.200000	9.354348	-14.182716	112.061786	0.198342	0.966381	0.434210	37.843158	-1.968688	-10.284866	48.962440	0.854556	49.554001	-14.862942	0.000000	40.181861	-0.829800	8.302377	48.268673	0.842447	50.491485	6.220947	0.000000	-0.023196	1.254691	1.431319	-0.043078	1.668739	1.520776	-0.038109	3.050656	1.520776	-0.026511	3.050656	1.252404	-0.021540	2.558566	1.162947	-0.013254	1.943517	1.073489	-0.165688	14.193318	7.960566	0.000000	0.000000	28.367051	-14.702633	-9.133223	9.679800	-18.907160	117.825824	0.951968	19.526468	-25.490532	4.586374	-4.847825	-10.709816	159.582874	3.615055	66.085899	-16.543573	15.625840
1.216667	8.916593	-14.381467	111.570417	0.200026	0.970446	0.435728	37.468702	-2.035573	-9.778023	47.682756	0.832221	48.941203	-14.903045	0.000000	39.394430	-1.027353	6.922316	46.284333	0.807814	49.735278	7.462890	0.000000	-0.026964	1.157755	1.559712	-0.050076	1.539814	1.657194	-0.044300	2.814964	1.657194	-0.030818	2.814964	1.364748	-0.025039	2.360893	1.267266	-0.015407	1.793362	1.169784	-0.192604	13.096751	8.674650	0.000000	0.000000	28.378861	-13.914717	-9.617684	11.510249	-18.369458	120.032443	0.823433	19.210409	-25.630302	4.323895	-4.760980	-11.252372	157.158005	4.009507	60.813095	-16.530962	13.251047
1.233333	8.429826	-14.579546	110.942511	0.201909	0.975384	0.436689	36.867145	-2.050533	-9.188628	46.027597	0.803333	48.172028	-14.883340	0.000000	38.330709	-1.223613	5.472051	43.859442	0.765492	48.800080	8.687555	0.000000	-0.023551	1.052006	1.687765	-0.043737	1.399168	1.793251	-0.038692	2.557848	1.793251	-0.026917	2.557848	1.476795	-0.021870	2.145251	1.371309	-0.013457	1.629558	1.265824	-0.168224	11.900505	9.386845	0.000000	0.000000	28.419854	-12.995114	-9.965063	13.716923	-17.810424	122.254908	0.699893	18.711353	-25.500421	3.726446	-4.688640	-11.867192	153.815742	4.330611	54.524481	-16.375164	10.353235
1.250000	7.918348	-14.755567	110.214637	0.203910	0.981070	0.437015	36.024304	-2.016448	-8.594625	44.031562	0.768496	47.265290	-14.759431	0.000000	36.998483	-1.410103	4.038947	41.046945	0.716404	47.686018	9.804144	0.000000	-0.012795	0.941559	1.806973	-0.023762	1.252273	1.919909	-0.021022	2.289306	1.919909	-0.014624	2.289306	1.581102	-0.011882	1.920027	1.468166	-0.007311	1.458475	1.355230	-0.091396	10.651102	10.049843	0.000000	0.000000	28.504392	-11.951369	-10.177718	16.329411	-17.236060	124.203315	0.545253	17.842574	-25.015600	2.710020	-4.604114	-12.537322	150.100398	4.532046	48.066032	-16.425486	6.958001
